<mxfile host="Electron" agent="Mozilla/5.0 (Windows NT 10.0; Win64; x64) AppleWebKit/537.36 (KHTML, like Gecko) draw.io/26.2.15 Chrome/134.0.6998.205 Electron/35.2.1 Safari/537.36" version="26.2.15">
  <diagram name="Page-1" id="pVggikf97ro8KH37m6gM">
    <mxGraphModel dx="983" dy="580" grid="1" gridSize="10" guides="1" tooltips="1" connect="1" arrows="1" fold="1" page="1" pageScale="1" pageWidth="1169" pageHeight="827" math="0" shadow="0">
      <root>
        <mxCell id="0" />
        <mxCell id="1" parent="0" />
        <mxCell id="ZGPQpNl4JLFNLazxaf72-1" value="" style="rounded=1;whiteSpace=wrap;html=1;strokeWidth=3;perimeterSpacing=0;arcSize=11;fillColor=#f5f5f5;fontColor=#333333;strokeColor=#000000;" vertex="1" parent="1">
          <mxGeometry x="320" y="280" width="520" height="180" as="geometry" />
        </mxCell>
        <mxCell id="ZGPQpNl4JLFNLazxaf72-2" value="" style="rounded=1;whiteSpace=wrap;html=1;strokeWidth=3;fillColor=#f5f5f5;fontColor=#333333;strokeColor=#000000;" vertex="1" parent="1">
          <mxGeometry x="310" y="270" width="540" height="30" as="geometry" />
        </mxCell>
        <mxCell id="ZGPQpNl4JLFNLazxaf72-3" value="" style="rounded=0;whiteSpace=wrap;html=1;strokeWidth=3;fillColor=#f5f5f5;fontColor=#333333;strokeColor=#000000;" vertex="1" parent="1">
          <mxGeometry x="330" y="240" width="500" height="30" as="geometry" />
        </mxCell>
        <mxCell id="ZGPQpNl4JLFNLazxaf72-4" value="" style="ellipse;whiteSpace=wrap;html=1;aspect=fixed;strokeWidth=2;fillColor=#82B366;strokeColor=#000000;" vertex="1" parent="1">
          <mxGeometry x="770" y="350" width="20" height="20" as="geometry" />
        </mxCell>
        <mxCell id="ZGPQpNl4JLFNLazxaf72-5" value="" style="ellipse;whiteSpace=wrap;html=1;aspect=fixed;strokeWidth=2;fillColor=#82B366;strokeColor=#000000;" vertex="1" parent="1">
          <mxGeometry x="740" y="350" width="20" height="20" as="geometry" />
        </mxCell>
        <mxCell id="ZGPQpNl4JLFNLazxaf72-6" value="" style="ellipse;whiteSpace=wrap;html=1;aspect=fixed;strokeWidth=2;fillColor=#FFD966;strokeColor=#000000;" vertex="1" parent="1">
          <mxGeometry x="710" y="350" width="20" height="20" as="geometry" />
        </mxCell>
        <mxCell id="ZGPQpNl4JLFNLazxaf72-7" value="" style="ellipse;whiteSpace=wrap;html=1;aspect=fixed;strokeWidth=2;fillColor=#EA6B66;strokeColor=#000000;" vertex="1" parent="1">
          <mxGeometry x="680" y="350" width="20" height="20" as="geometry" />
        </mxCell>
        <mxCell id="ZGPQpNl4JLFNLazxaf72-8" value="" style="ellipse;whiteSpace=wrap;html=1;aspect=fixed;strokeWidth=2;fillColor=#EA6B66;strokeColor=#000000;" vertex="1" parent="1">
          <mxGeometry x="650" y="350" width="20" height="20" as="geometry" />
        </mxCell>
        <mxCell id="ZGPQpNl4JLFNLazxaf72-9" value="" style="rounded=0;whiteSpace=wrap;html=1;fillColor=#000000;" vertex="1" parent="1">
          <mxGeometry x="300" y="394" width="20" height="20" as="geometry" />
        </mxCell>
        <mxCell id="ZGPQpNl4JLFNLazxaf72-10" value="&lt;font style=&quot;font-size: 16px;&quot;&gt;&lt;b&gt;1&lt;/b&gt;&lt;/font&gt;" style="text;html=1;align=center;verticalAlign=middle;whiteSpace=wrap;rounded=0;" vertex="1" parent="1">
          <mxGeometry x="645" y="330" width="30" height="20" as="geometry" />
        </mxCell>
        <mxCell id="ZGPQpNl4JLFNLazxaf72-11" value="&lt;font style=&quot;font-size: 16px;&quot;&gt;&lt;b&gt;2&lt;/b&gt;&lt;/font&gt;" style="text;html=1;align=center;verticalAlign=middle;whiteSpace=wrap;rounded=0;" vertex="1" parent="1">
          <mxGeometry x="675" y="330" width="30" height="20" as="geometry" />
        </mxCell>
        <mxCell id="ZGPQpNl4JLFNLazxaf72-12" value="&lt;font style=&quot;font-size: 16px;&quot;&gt;&lt;b&gt;3&lt;/b&gt;&lt;/font&gt;" style="text;html=1;align=center;verticalAlign=middle;whiteSpace=wrap;rounded=0;" vertex="1" parent="1">
          <mxGeometry x="705" y="330" width="30" height="20" as="geometry" />
        </mxCell>
        <mxCell id="ZGPQpNl4JLFNLazxaf72-14" value="&lt;font style=&quot;font-size: 16px;&quot;&gt;&lt;b&gt;4&lt;/b&gt;&lt;/font&gt;" style="text;html=1;align=center;verticalAlign=middle;whiteSpace=wrap;rounded=0;" vertex="1" parent="1">
          <mxGeometry x="735" y="330" width="30" height="20" as="geometry" />
        </mxCell>
        <mxCell id="ZGPQpNl4JLFNLazxaf72-15" value="&lt;font style=&quot;font-size: 16px;&quot;&gt;&lt;b&gt;5&lt;/b&gt;&lt;/font&gt;" style="text;html=1;align=center;verticalAlign=middle;whiteSpace=wrap;rounded=0;" vertex="1" parent="1">
          <mxGeometry x="765" y="330" width="30" height="20" as="geometry" />
        </mxCell>
      </root>
    </mxGraphModel>
  </diagram>
</mxfile>
